<svg width="18" height="18" fill="none" xmlns="http://www.w3.org/2000/svg"><defs><clipPath id="a"><path fill="#fff" fill-opacity="0" d="M0 0h18v18H0z"/></clipPath></defs><path fill="none" d="M0 0h18v18H0z"/><g clip-path="url(#a)"><path d="M14.291 2.563a4.124 4.124 0 0 0-4.496.895L9 4.253l-.795-.795A4.126 4.126 0 1 0 2.37 9.293l.795.795L9 15.922l5.835-5.835.795-.795c.383-.384.687-.838.895-1.339.207-.5.314-1.579.314-1.579l-.314-1.579s-.512-.955-.895-1.338a4.123 4.123 0 0 0-1.339-.895z" stroke="#FFF" stroke-opacity=".8" stroke-width="1.5" stroke-linejoin="round"/></g></svg>